:SAMPLES-PER-SECOND 30
:FRAME-RANGE 1-663
:FULLY-SPECIFIED
:DEGREES
63
root  54.3473 38.012 71.2734 0.806281 -39.5106 -4.48115
RightUpLeg  -12.6037 -7.9829 6.54371
RightLeg  25.825 -11.6158 -4.3261
RightFoot  -11.4394 -0.0765882 1.06465
RightToes  2.91037e-010 0 -3.6325e-017
Spine  8.94897 -2.22491 11.158
Spine1  -0.524556 -0.675565 1.43828
HEad  18.8197 -9.09848 -3.20078
LeftShoulder1  1.48882 -0.482465 -31.2984
LeftArm  24.2103 3.78665 -36.1681
LeftForeArm  -0.884969 -13.7303 -13.2437
LeftHand  0.393925 -2.05559 -5.98375
RightShoulder  8.29801 11.3316 48.9916
RightArm  9.04153 1.92124 15.0609
RightForeArm  22.4255 -2.9058 17.2039
RightHand  0.384043 4.16246 4.38664
LeftUpLeg  -14.0806 11.2678 9.38193
LeftLeg  63.9332 0.261439 1.21333
LeftFoot  3.62386 1.2529 -9.69053
LeftToes  -4.9116e-011 5.71383e-011 -3.31847e-011
64
root  53.6427 38.2688 72.1854 -0.155483 -40.2639 -3.32013
RightUpLeg  -9.26686 -7.02124 4.97763
RightLeg  23.7385 -11.9306 -3.41146
RightFoot  -12.2689 -0.0702246 1.59312
RightToes  2.91037e-010 0 -3.6325e-017
Spine  8.74222 -1.6503 10.9263
Spine1  -0.855626 -0.077279 0.369678
HEad  19.7136 -9.40129 -3.32113
LeftShoulder1  1.45299 -0.385834 -31.3036
LeftArm  22.0109 4.81155 -35.0426
LeftForeArm  0.0397352 -12.6633 -13.9293
LeftHand  0.379152 -1.85165 -5.93498
RightShoulder  8.7184 12.2191 48.5599
RightArm  9.25739 3.30046 15.6981
RightForeArm  22.0373 -1.95004 17.1433
RightHand  0.402939 4.27886 4.55219
LeftUpLeg  -16.7895 10.8399 7.81508
LeftLeg  61.0842 -0.300372 -0.022189
LeftFoot  1.24201 0.944145 -8.6214
LeftToes  -4.9116e-011 5.71383e-011 -3.31847e-011
65
root  52.9606 38.4787 73.0797 -0.933344 -40.9643 -2.20755
RightUpLeg  -6.2252 -6.52692 3.57106
RightLeg  21.6276 -11.8343 -2.5385
RightFoot  -12.986 -0.0596651 1.97242
RightToes  2.91037e-010 0 -3.6325e-017
Spine  8.45476 -1.11601 10.518
Spine1  -1.21529 0.383101 -0.534368
HEad  20.4003 -9.4096 -3.46887
LeftShoulder1  1.41772 -0.291765 -31.2989
LeftArm  20.9052 6.0488 -33.9424
LeftForeArm  0.308985 -12.1325 -14.2585
LeftHand  0.371916 -1.68597 -5.97154
RightShoulder  9.18172 13.1712 48.2101
RightArm  9.58279 4.53062 16.1947
RightForeArm  21.5665 -0.585408 16.985
RightHand  0.398089 4.30952 4.47781
LeftUpLeg  -18.9053 10.3391 6.29843
LeftLeg  55.6456 -1.03608 -1.14838
LeftFoot  -0.411452 0.82427 -8.58001
LeftToes  -4.9116e-011 5.71383e-011 -3.31847e-011
66
root  52.2942 38.6862 73.9542 -1.60243 -41.6192 -1.11056
RightUpLeg  -3.13455 -6.29836 2.2785
RightLeg  19.0038 -11.3468 -1.72903
RightFoot  -13.3596 -0.0490668 2.35296
RightToes  2.91037e-010 0 -3.6325e-017
Spine  8.08287 -0.584294 9.75534
Spine1  -1.46531 0.733652 -1.24723
HEad  20.9138 -9.5326 -3.69095
LeftShoulder1  1.40038 -0.239412 -31.3577
LeftArm  20.573 7.36002 -32.9829
LeftForeArm  0.03518 -11.9189 -14.4194
LeftHand  0.380358 -1.64712 -6.17499
RightShoulder  9.59177 14.045 47.8429
RightArm  10.8226 5.85639 16.5526
RightForeArm  20.3792 1.14858 16.8172
RightHand  0.389977 4.29995 4.38595
LeftUpLeg  -20.027 10.0593 4.8735
LeftLeg  47.3647 -1.47332 -1.30757
LeftFoot  -1.27238 0.738803 -8.29103
LeftToes  -4.9116e-011 5.71383e-011 -3.31847e-011
67
root  51.6528 38.8771 74.8021 -2.07254 -42.1758 -0.201086
RightUpLeg  0.0713633 -6.24774 1.21014
RightLeg  15.6726 -10.562 -0.971008
RightFoot  -13.3802 -0.0436463 2.64225
RightToes  2.91037e-010 0 -3.6325e-017
Spine  7.54118 -0.141477 8.81826
Spine1  -1.3702 0.969593 -1.91799
HEad  21.1159 -9.534 -3.74929
LeftShoulder1  1.38742 -0.206662 -31.338
LeftArm  19.8698 8.55063 -32.2668
LeftForeArm  0.507968 -11.415 -14.7109
LeftHand  0.395738 -1.44929 -6.60756
RightShoulder  9.9464 14.8344 47.462
RightArm  11.5459 7.11366 16.9323
RightForeArm  19.7724 2.7952 16.4583
RightHand  0.372246 4.35267 4.14787
LeftUpLeg  -19.9555 10.3638 3.69475
LeftLeg  36.1826 -1.41677 -0.761964
LeftFoot  -1.00928 0.773074 -8.47438
LeftToes  -4.9116e-011 5.71383e-011 -3.31847e-011
68
root  51.0428 39.0372 75.6487 -2.15463 -42.6832 0.48453
RightUpLeg  3.18734 -6.12572 0.373942
RightLeg  11.9131 -10.1493 -0.442611
RightFoot  -13.1466 -0.0380515 3.24067
RightToes  2.91037e-010 0 -3.6325e-017
Spine  6.81523 0.21537 7.86682
Spine1  -1.16709 1.149 -2.5352
HEad  21.3416 -9.59224 -3.70952
LeftShoulder1  1.37466 -0.159999 -31.4659
LeftArm  20.2669 9.9107 -31.711
LeftForeArm  -0.120328 -11.3018 -14.8563
LeftHand  0.391105 -1.59098 -6.38189
RightShoulder  10.2004 15.4328 47.1225
RightArm  13.0933 8.2667 17.2094
RightForeArm  18.235 4.65172 16.0609
RightHand  0.369041 4.35619 4.10806
LeftUpLeg  -18.7929 11.709 2.54436
LeftLeg  22.3128 -1.93996 -0.55442
LeftFoot  0.453214 0.97925 -9.4926
LeftToes  -4.9116e-011 5.71383e-011 -3.31847e-011
69
root  50.4463 39.1218 76.5128 -2.03933 -43.186 0.875471
RightUpLeg  6.09185 -5.92854 -0.26864
RightLeg  8.55953 -9.70203 -0.0397584
RightFoot  -13.1069 -0.0280436 3.94733
RightToes  2.91037e-010 0 -3.6325e-017
Spine  6.169 0.463126 6.90211
Spine1  -0.959158 1.30605 -3.06298
HEad  21.6546 -9.53201 -3.55378
LeftShoulder1  1.36486 -0.141619 -31.3858
LeftArm  19.0251 11.5235 -31.4949
LeftForeArm  1.28602 -10.7078 -15.105
LeftHand  0.395277 -1.33461 -6.72447
RightShoulder  10.3872 15.8402 46.9665
RightArm  14.9846 9.09401 17.4063
RightForeArm  16.3926 6.45765 15.578
RightHand  0.35941 4.45065 3.94894
LeftUpLeg  -16.5175 9.53037 3.02272
LeftLeg  7.51302 0.989162 -1.59239
LeftFoot  1.86818 1.15582 -10.0619
LeftToes  -4.9116e-011 5.71383e-011 -3.31847e-011
70
root  49.853 39.0634 77.4497 -1.86886 -43.7966 0.739658
RightUpLeg  8.68193 -5.81849 -0.678886
RightLeg  6.73342 -8.94962 0.135137
RightFoot  -13.8109 0.00816359 4.72275
RightToes  2.91037e-010 0 -3.6325e-017
Spine  5.64522 0.584754 6.30073
Spine1  -0.568733 1.41616 -3.42074
HEad  22.0196 -9.5472 -3.19556
LeftShoulder1  1.33068 -0.0670185 -31.2087
LeftArm  18.6739 13.2419 -31.2829
LeftForeArm  1.20677 -10.5961 -15.1604
LeftHand  0.420795 -1.43911 -7.0448
RightShoulder  10.5916 16.2234 46.9556
RightArm  16.1599 9.66288 17.6206
RightForeArm  15.0434 7.79413 15.0997
RightHand  0.35428 4.36083 3.93044
LeftUpLeg  -14.7222 5.92365 4.28027
LeftLeg  -3.59667 5.1171 -3.232
LeftFoot  2.6653 1.22646 -10.0971
LeftToes  -4.9116e-011 5.71383e-011 -3.31847e-011
71
root  49.2521 38.8493 78.4699 -1.65859 -43.9285 0.273282
RightUpLeg  10.7919 -5.84209 -0.906694
RightLeg  6.70669 -8.50106 -0.0676171
RightFoot  -15.5216 0.109359 5.8775
RightToes  2.91037e-010 0 -3.6325e-017
Spine  5.39296 0.425937 5.6416
Spine1  -0.481166 1.17867 -3.20172
HEad  22.4651 -9.29869 -2.6645
LeftShoulder1  1.3347 -0.0939212 -31.041
LeftArm  17.4909 14.9967 -31.1136
LeftForeArm  1.66393 -10.2598 -15.2797
LeftHand  0.432679 -1.38723 -7.30789
RightShoulder  10.7889 16.4592 47.2696
RightArm  17.0606 10.09 17.6845
RightForeArm  14.2785 8.47837 14.8554
RightHand  0.339049 4.40036 3.73171
LeftUpLeg  -15.1676 5.99974 4.28435
LeftLeg  -6.11799 6.14187 -3.76507
LeftFoot  1.64414 1.16085 -10.2684
LeftToes  -4.9116e-011 5.71383e-011 -3.31847e-011
72
root  48.6231 38.5375 79.5513 -1.86736 -43.2256 0.187803
RightUpLeg  12.7044 -6.18254 -1.50128
RightLeg  7.9411 -8.51203 -0.428602
RightFoot  -17.8716 0.292584 7.24665
RightToes  2.91037e-010 0 -3.6325e-017
Spine  5.10353 0.117563 3.99498
Spine1  -0.202841 0.634796 -2.16907
HEad  22.9193 -9.57876 -1.8675
LeftShoulder1  1.37966 -0.235365 -30.8405
LeftArm  15.3339 16.024 -31.149
LeftForeArm  2.89843 -9.08281 -15.7854
LeftHand  0.425834 -1.5964 -6.99446
RightShoulder  10.8083 16.3423 47.6425
RightArm  16.8952 10.0835 17.7146
RightForeArm  14.3318 8.72492 14.6907
RightHand  0.332182 4.33089 3.68124
LeftUpLeg  -16.0367 5.72034 3.49139
LeftLeg  -2.96212 9.53808 -3.4088
LeftFoot  5.04689 0.96601 -6.91689
LeftToes  -4.9116e-011 5.71383e-011 -3.31847e-011
73
root  47.952 38.2223 80.6885 -2.81556 -42.8132 0.603957
RightUpLeg  15.0049 -6.61248 -2.55631
RightLeg  9.43786 -8.24593 -1.02448
RightFoot  -19.9131 0.512192 8.62516
RightToes  2.91037e-010 0 -3.6325e-017
Spine  4.94787 0.113009 2.18606
Spine1  0.288613 0.536663 -1.76813
HEad  23.3951 -10.5338 -0.706455
LeftShoulder1  1.44457 -0.510737 -29.9196
LeftArm  11.654 16.5797 -31.6814
LeftForeArm  6.32808 -6.9886 -16.4661
LeftHand  0.423493 -1.55269 -6.96299
RightShoulder  10.6375 15.7136 48.4424
RightArm  16.4261 9.12075 17.466
RightForeArm  14.5842 9.22068 14.3344
RightHand  0.340248 4.39973 3.74618
LeftUpLeg  -16.9787 6.03173 2.6049
LeftLeg  2.59905 11.2562 -2.41715
LeftFoot  9.99429 0.628653 -3.66155
LeftToes  -4.9116e-011 5.71383e-011 -3.31847e-011
74
root  47.2508 37.9839 81.8409 -4.2965 -43.1119 1.5948
RightUpLeg  16.6737 -6.58981 -3.91636
RightLeg  12.2801 -7.52078 -2.23664
RightFoot  -21.0814 0.815473 11.2223
RightToes  2.91037e-010 0 -3.6325e-017
Spine  5.20558 0.388051 0.150496
Spine1  0.29226 0.789214 -1.81827
HEad  24.3849 -11.332 0.348523
LeftShoulder1  1.41199 -0.430366 -29.8241
LeftArm  12.238 16.3437 -30.5488
LeftForeArm  6.05935 -6.40093 -16.8046
LeftHand  0.43733 -1.1809 -7.64228
RightShoulder  10.3774 14.6448 50.0558
RightArm  18.5435 7.91213 16.7212
RightForeArm  12.4519 10.091 14.1177
RightHand  0.316215 4.37118 3.47381
LeftUpLeg  -18.1019 12.9698 0.281849
LeftLeg  10.0872 3.75236 -1.81123
LeftFoot  9.04119 0.471192 -2.92826
LeftToes  -4.9116e-011 5.71383e-011 -3.31847e-011
75
root  46.5808 37.7898 82.9813 -5.49167 -42.9772 2.57016
RightUpLeg  16.7258 -5.19071 -4.98904
RightLeg  17.7383 -8.16687 -3.31157
RightFoot  -21.1976 1.22578 15.8016
RightToes  2.91037e-010 0 -3.6325e-017
Spine  5.23445 0.3861 -1.54045
Spine1  0.467852 0.798168 -2.1904
HEad  25.513 -11.89 1.12395
LeftShoulder1  1.34064 -0.211398 -30.0189
LeftArm  12.3238 15.2486 -29.1029
LeftForeArm  5.06891 -5.5688 -17.2466
LeftHand  0.417458 -0.890774 -7.66137
RightShoulder  10.0397 13.6045 51.364
RightArm  16.772 6.3348 16.7041
RightForeArm  13.6326 8.86676 14.6145
RightHand  0.277272 4.28063 3.0458
LeftUpLeg  -19.4031 20.1342 -2.82064
LeftLeg  16.7567 -4.12912 -1.16675
LeftFoot  5.71021 0.193198 -1.52056
LeftToes  -4.9116e-011 5.71383e-011 -3.31847e-011
76
root  46.0489 37.8093 83.9755 -6.21052 -43.4504 3.42611
RightUpLeg  14.4556 -5.59826 -6.80547
RightLeg  25.469 -8.18311 -4.4473
RightFoot  -18.2712 1.20024 21.6466
RightToes  2.91037e-010 0 -3.6325e-017
Spine  5.42407 0.575065 -2.58013
Spine1  0.717493 1.11745 -3.81275
HEad  26.3639 -12.0615 1.1235
LeftShoulder1  1.31813 -0.0858166 -30.66
LeftArm  11.5169 13.733 -27.4322
LeftForeArm  4.3047 -4.70845 -17.5487
LeftHand  0.398435 -0.587163 -7.71799
RightShoulder  9.5058 12.6131 51.6251
RightArm  15.9686 4.2478 17.3993
RightForeArm  14.4511 7.42316 15.2217
RightHand  0.260517 4.21376 2.86933
LeftUpLeg  -18.5602 21.7165 -3.32252
LeftLeg  19.284 -4.93849 -1.58994
LeftFoot  2.96788 0.133836 -1.20978
LeftToes  -4.9116e-011 5.71383e-011 -3.31847e-011
